<mxfile host="app.diagrams.net" agent="Mozilla/5.0 (Windows NT 10.0; Win64; x64) AppleWebKit/537.36 (KHTML, like Gecko) Chrome/131.0.0.0 Safari/537.36 Edg/131.0.0.0" version="28.0.7" pages="3">
  <diagram name="Algorithm" id="VHeuoD-hGB7P8Zk41wIF">
    <mxGraphModel dx="1668" dy="3727" grid="1" gridSize="10" guides="1" tooltips="1" connect="1" arrows="1" fold="1" page="1" pageScale="1" pageWidth="850" pageHeight="1400" background="none" math="0" shadow="0">
      <root>
        <mxCell id="0" />
        <mxCell id="1" parent="0" />
        <mxCell id="nt4l8ohsEQSsg3eBTWSx-1" value="&lt;font face=&quot;Tahoma&quot; style=&quot;font-size: 25px;&quot;&gt;Calculate the Perimeter of a Rectangle&lt;/font&gt;&lt;div&gt;&lt;ul&gt;&lt;li&gt;&lt;font face=&quot;Tahoma&quot;&gt;&lt;span style=&quot;font-size: 25px; font-weight: 400;&quot;&gt;Create a program that asks the user for the length and width of a rectangle, then calculates and display its perimeter.&lt;/span&gt;&lt;/font&gt;&lt;/li&gt;&lt;li&gt;&lt;font face=&quot;Tahoma&quot;&gt;&lt;span style=&quot;font-size: 25px;&quot;&gt;Formula: &lt;span style=&quot;font-weight: normal;&quot;&gt;perimeter = 2 * (length + width)&lt;/span&gt;&lt;/span&gt;&lt;/font&gt;&lt;/li&gt;&lt;/ul&gt;&lt;div&gt;&lt;div style=&quot;&quot;&gt;&lt;font face=&quot;Tahoma&quot; style=&quot;font-size: 25px;&quot;&gt;&lt;br&gt;&lt;/font&gt;&lt;/div&gt;&lt;div style=&quot;&quot;&gt;&lt;br&gt;&lt;/div&gt;&lt;/div&gt;&lt;/div&gt;" style="text;strokeColor=none;align=left;fillColor=none;html=1;verticalAlign=middle;whiteSpace=wrap;rounded=0;fontStyle=1;fontSize=30;" parent="1" vertex="1">
          <mxGeometry x="5" y="-2620" width="841" height="150" as="geometry" />
        </mxCell>
        <mxCell id="1ZsUfOOLuehyu-UQgo9B-3" value="&lt;div&gt;&lt;font face=&quot;Tahoma&quot;&gt;&lt;b&gt;ALGORITHM:&lt;/b&gt;&lt;/font&gt;&lt;/div&gt;&lt;div&gt;&lt;span style=&quot;background-color: transparent; color: light-dark(rgb(0, 0, 0), rgb(255, 255, 255)); font-family: Tahoma;&quot;&gt;&lt;br&gt;&lt;/span&gt;&lt;/div&gt;&lt;div&gt;&lt;span style=&quot;background-color: transparent; color: light-dark(rgb(0, 0, 0), rgb(255, 255, 255)); font-family: Tahoma;&quot;&gt;1. START&lt;/span&gt;&lt;/div&gt;&lt;div&gt;&lt;span style=&quot;background-color: transparent; color: light-dark(rgb(0, 0, 0), rgb(255, 255, 255)); font-family: Tahoma;&quot;&gt;&lt;span style=&quot;white-space: pre;&quot;&gt;&#x9;&lt;/span&gt;DECLARE VARIABLE PERIMETER , LENGTH, WIDTH&lt;br&gt;&lt;/span&gt;&lt;/div&gt;&lt;div&gt;&lt;span style=&quot;background-color: transparent; color: light-dark(rgb(0, 0, 0), rgb(255, 255, 255)); font-family: Tahoma;&quot;&gt;&amp;nbsp; &amp;nbsp; &amp;nbsp; &amp;nbsp; ASK THE USER FOR A INPUT FOR LENGTH AND WIDTH&lt;/span&gt;&lt;/div&gt;&lt;div&gt;&lt;span style=&quot;background-color: transparent; color: light-dark(rgb(0, 0, 0), rgb(255, 255, 255)); font-family: Tahoma;&quot;&gt;&amp;nbsp; &amp;nbsp; &amp;nbsp; &amp;nbsp; SET THE VARAIBLE PERIMETER = 2 * LENGTH + WIDTH&lt;/span&gt;&lt;/div&gt;&lt;div&gt;&lt;span style=&quot;background-color: transparent; color: light-dark(rgb(0, 0, 0), rgb(255, 255, 255)); font-family: Tahoma;&quot;&gt;&amp;nbsp; &amp;nbsp; &amp;nbsp; &amp;nbsp; ADD THE TWO VARIABLE PERIMETER END.&lt;/span&gt;&lt;/div&gt;" style="text;strokeColor=none;align=left;fillColor=none;html=1;verticalAlign=middle;whiteSpace=wrap;rounded=0;fontSize=21;" parent="1" vertex="1">
          <mxGeometry x="25.5" y="-2410" width="800" height="77" as="geometry" />
        </mxCell>
      </root>
    </mxGraphModel>
  </diagram>
  <diagram id="BMhFFlNDnPw-MgA8oWkC" name="Pseudocode">
    <mxGraphModel dx="1418" dy="1888" grid="1" gridSize="10" guides="1" tooltips="1" connect="1" arrows="1" fold="1" page="1" pageScale="1" pageWidth="850" pageHeight="1100" math="0" shadow="0">
      <root>
        <mxCell id="0" />
        <mxCell id="1" parent="0" />
        <mxCell id="pW8P7YqGiM7Uz6JHGesf-1" value="&lt;div&gt;&lt;font style=&quot;font-size: 20px;&quot; face=&quot;Tahoma&quot;&gt;&lt;b&gt;PSEUDOCODE:&lt;/b&gt;&lt;/font&gt;&lt;/div&gt;&lt;div&gt;&lt;span style=&quot;background-color: transparent; color: light-dark(rgb(0, 0, 0), rgb(255, 255, 255)); font-family: Tahoma; font-size: 20px;&quot;&gt;&lt;br&gt;&lt;/span&gt;&lt;/div&gt;&lt;div&gt;&lt;font face=&quot;Tahoma&quot;&gt;&lt;span style=&quot;font-size: 20px;&quot;&gt;START&lt;/span&gt;&lt;/font&gt;&lt;/div&gt;&lt;div&gt;&lt;font face=&quot;Tahoma&quot;&gt;&lt;span style=&quot;font-size: 20px;&quot;&gt;&amp;nbsp; &amp;nbsp; DECLARE VARIABLE PERIMETER, LENGTH, WIDTH&lt;/span&gt;&lt;/font&gt;&lt;/div&gt;&lt;div&gt;&lt;font face=&quot;Tahoma&quot;&gt;&lt;span style=&quot;font-size: 20px;&quot;&gt;&amp;nbsp; &amp;nbsp; OUTPUT &quot;ENTER THE LENGTH&quot;&lt;/span&gt;&lt;/font&gt;&lt;/div&gt;&lt;div&gt;&lt;font face=&quot;Tahoma&quot;&gt;&lt;span style=&quot;font-size: 20px;&quot;&gt;&amp;nbsp; &amp;nbsp; INPUT l&lt;/span&gt;&lt;/font&gt;&lt;/div&gt;&lt;div&gt;&lt;font face=&quot;Tahoma&quot;&gt;&lt;span style=&quot;font-size: 20px;&quot;&gt;&amp;nbsp; &amp;nbsp; OUTPOT &quot;ENTER THE WIDTH&quot;&lt;/span&gt;&lt;/font&gt;&lt;/div&gt;&lt;div&gt;&lt;font face=&quot;Tahoma&quot;&gt;&lt;span style=&quot;font-size: 20px;&quot;&gt;&amp;nbsp; &amp;nbsp; INPUT W&lt;/span&gt;&lt;/font&gt;&lt;/div&gt;&lt;div&gt;&lt;font face=&quot;Tahoma&quot;&gt;&lt;span style=&quot;font-size: 20px;&quot;&gt;&amp;nbsp; &amp;nbsp; SET p = 2* (l + W)&lt;/span&gt;&lt;/font&gt;&lt;/div&gt;&lt;div&gt;&lt;font face=&quot;Tahoma&quot;&gt;&lt;span style=&quot;font-size: 20px;&quot;&gt;&amp;nbsp; &amp;nbsp; OUTPUT &quot;Perimeter:&quot;,P&lt;/span&gt;&lt;/font&gt;&lt;/div&gt;&lt;div&gt;&lt;font face=&quot;Tahoma&quot;&gt;&lt;span style=&quot;font-size: 20px;&quot;&gt;&amp;nbsp;END&lt;/span&gt;&lt;/font&gt;&lt;/div&gt;&lt;div&gt;&lt;font face=&quot;Tahoma&quot;&gt;&lt;span style=&quot;font-size: 20px;&quot;&gt;&lt;br&gt;&lt;/span&gt;&lt;/font&gt;&lt;/div&gt;&lt;div&gt;&lt;font face=&quot;Tahoma&quot;&gt;&lt;span style=&quot;font-size: 20px;&quot;&gt;&lt;br&gt;&lt;/span&gt;&lt;/font&gt;&lt;/div&gt;&lt;div&gt;&lt;font face=&quot;Tahoma&quot;&gt;&lt;span style=&quot;font-size: 20px;&quot;&gt;&lt;span style=&quot;white-space: pre;&quot;&gt;&#x9;&lt;/span&gt;&lt;br&gt;&lt;/span&gt;&lt;/font&gt;&lt;/div&gt;" style="text;strokeColor=none;align=left;fillColor=none;html=1;verticalAlign=middle;whiteSpace=wrap;rounded=0;" parent="1" vertex="1">
          <mxGeometry x="40" y="40" width="800" height="100" as="geometry" />
        </mxCell>
      </root>
    </mxGraphModel>
  </diagram>
  <diagram id="oA8mU-kRX2h0jVC00kLB" name="Flowchart">
    <mxGraphModel dx="1418" dy="788" grid="1" gridSize="10" guides="1" tooltips="1" connect="1" arrows="1" fold="1" page="1" pageScale="1" pageWidth="850" pageHeight="1100" math="0" shadow="0">
      <root>
        <mxCell id="0" />
        <mxCell id="1" parent="0" />
        <mxCell id="UWxpIhC9n3GhN_n4S63G-1" value="&lt;div&gt;&lt;font style=&quot;font-size: 20px;&quot; face=&quot;Tahoma&quot;&gt;&lt;b&gt;FLOWCHART:&lt;/b&gt;&lt;/font&gt;&lt;/div&gt;&lt;div&gt;&lt;span style=&quot;background-color: transparent; color: light-dark(rgb(0, 0, 0), rgb(255, 255, 255)); font-family: Tahoma; font-size: 20px;&quot;&gt;&lt;br&gt;&lt;/span&gt;&lt;/div&gt;&lt;div&gt;&lt;br&gt;&lt;/div&gt;" style="text;strokeColor=none;align=left;fillColor=none;html=1;verticalAlign=middle;whiteSpace=wrap;rounded=0;" parent="1" vertex="1">
          <mxGeometry x="40" y="87" width="800" as="geometry" />
        </mxCell>
        <mxCell id="UWxpIhC9n3GhN_n4S63G-2" value="&lt;b&gt;&lt;font style=&quot;font-size: 20px;&quot;&gt;START / END&lt;/font&gt;&lt;/b&gt;" style="html=1;dashed=0;whiteSpace=wrap;shape=mxgraph.dfd.start;strokeWidth=3;" parent="1" vertex="1">
          <mxGeometry x="40" y="120" width="160" height="60" as="geometry" />
        </mxCell>
        <mxCell id="UWxpIhC9n3GhN_n4S63G-3" value="&lt;font style=&quot;font-size: 20px;&quot;&gt;&lt;b&gt;INITIALIZE&lt;/b&gt;&lt;/font&gt;" style="shape=hexagon;perimeter=hexagonPerimeter2;whiteSpace=wrap;html=1;fixedSize=1;strokeWidth=3;" parent="1" vertex="1">
          <mxGeometry x="40" y="210" width="160" height="60" as="geometry" />
        </mxCell>
        <mxCell id="UWxpIhC9n3GhN_n4S63G-4" value="&lt;b&gt;&lt;font style=&quot;font-size: 20px;&quot;&gt;PROCESS&lt;/font&gt;&lt;/b&gt;" style="html=1;dashed=0;whiteSpace=wrap;strokeWidth=3;" parent="1" vertex="1">
          <mxGeometry x="40" y="300" width="160" height="60" as="geometry" />
        </mxCell>
        <mxCell id="UWxpIhC9n3GhN_n4S63G-5" value="INPUT / OUTPUT" style="shape=parallelogram;perimeter=parallelogramPerimeter;whiteSpace=wrap;html=1;fixedSize=1;strokeWidth=3;fontSize=20;fontStyle=1" parent="1" vertex="1">
          <mxGeometry x="40" y="390" width="160" height="60" as="geometry" />
        </mxCell>
        <mxCell id="8Xktej_uVTfez-Pu0KCq-1" style="edgeStyle=orthogonalEdgeStyle;rounded=0;orthogonalLoop=1;jettySize=auto;html=1;" edge="1" parent="1" source="8Xktej_uVTfez-Pu0KCq-2" target="8Xktej_uVTfez-Pu0KCq-4">
          <mxGeometry relative="1" as="geometry" />
        </mxCell>
        <mxCell id="8Xktej_uVTfez-Pu0KCq-2" value="START" style="strokeWidth=2;html=1;shape=mxgraph.flowchart.terminator;whiteSpace=wrap;" vertex="1" parent="1">
          <mxGeometry x="430" y="260" width="100" height="60" as="geometry" />
        </mxCell>
        <mxCell id="8Xktej_uVTfez-Pu0KCq-3" style="edgeStyle=orthogonalEdgeStyle;rounded=0;orthogonalLoop=1;jettySize=auto;html=1;" edge="1" parent="1" source="8Xktej_uVTfez-Pu0KCq-4" target="8Xktej_uVTfez-Pu0KCq-6">
          <mxGeometry relative="1" as="geometry" />
        </mxCell>
        <mxCell id="8Xktej_uVTfez-Pu0KCq-4" value="PERIMETER,&lt;div&gt;LENGTH,&lt;/div&gt;&lt;div&gt;WIDTH&lt;/div&gt;" style="rounded=0;whiteSpace=wrap;html=1;" vertex="1" parent="1">
          <mxGeometry x="590" y="260" width="120" height="60" as="geometry" />
        </mxCell>
        <mxCell id="8Xktej_uVTfez-Pu0KCq-5" style="edgeStyle=orthogonalEdgeStyle;rounded=0;orthogonalLoop=1;jettySize=auto;html=1;" edge="1" parent="1" source="8Xktej_uVTfez-Pu0KCq-6" target="8Xktej_uVTfez-Pu0KCq-8">
          <mxGeometry relative="1" as="geometry" />
        </mxCell>
        <mxCell id="8Xktej_uVTfez-Pu0KCq-6" value="LENGTH = 10" style="rounded=0;whiteSpace=wrap;html=1;" vertex="1" parent="1">
          <mxGeometry x="780" y="260" width="120" height="60" as="geometry" />
        </mxCell>
        <mxCell id="8Xktej_uVTfez-Pu0KCq-7" style="edgeStyle=orthogonalEdgeStyle;rounded=0;orthogonalLoop=1;jettySize=auto;html=1;" edge="1" parent="1" source="8Xktej_uVTfez-Pu0KCq-8" target="8Xktej_uVTfez-Pu0KCq-10">
          <mxGeometry relative="1" as="geometry" />
        </mxCell>
        <mxCell id="8Xktej_uVTfez-Pu0KCq-8" value="WIDTH = 20" style="rounded=0;whiteSpace=wrap;html=1;" vertex="1" parent="1">
          <mxGeometry x="970" y="260" width="120" height="60" as="geometry" />
        </mxCell>
        <mxCell id="8Xktej_uVTfez-Pu0KCq-9" style="edgeStyle=orthogonalEdgeStyle;rounded=0;orthogonalLoop=1;jettySize=auto;html=1;" edge="1" parent="1" source="8Xktej_uVTfez-Pu0KCq-10">
          <mxGeometry relative="1" as="geometry">
            <mxPoint x="1030" y="520" as="targetPoint" />
          </mxGeometry>
        </mxCell>
        <mxCell id="-KGtwRQ9aABstzTIppbq-1" style="edgeStyle=orthogonalEdgeStyle;rounded=0;orthogonalLoop=1;jettySize=auto;html=1;" edge="1" parent="1" source="8Xktej_uVTfez-Pu0KCq-10" target="6GLtDkW90Oz6ZyYYhqF4-1">
          <mxGeometry relative="1" as="geometry" />
        </mxCell>
        <mxCell id="8Xktej_uVTfez-Pu0KCq-10" value="PERIMETER = 2&lt;div&gt;*LENGTH+&lt;/div&gt;&lt;div&gt;WIDTH&lt;/div&gt;&lt;div&gt;&lt;br&gt;&lt;/div&gt;" style="rounded=0;whiteSpace=wrap;html=1;" vertex="1" parent="1">
          <mxGeometry x="970" y="390" width="120" height="60" as="geometry" />
        </mxCell>
        <mxCell id="6GLtDkW90Oz6ZyYYhqF4-1" value="END" style="rounded=0;whiteSpace=wrap;html=1;" vertex="1" parent="1">
          <mxGeometry x="970" y="520" width="120" height="60" as="geometry" />
        </mxCell>
      </root>
    </mxGraphModel>
  </diagram>
</mxfile>
